<?xml version="1.0" encoding="UTF-8" standalone="no"?>
<svg
   xmlns:osb="http://www.openswatchbook.org/uri/2009/osb"
   xmlns:dc="http://purl.org/dc/elements/1.1/"
   xmlns:cc="http://creativecommons.org/ns#"
   xmlns:rdf="http://www.w3.org/1999/02/22-rdf-syntax-ns#"
   xmlns:svg="http://www.w3.org/2000/svg"
   xmlns="http://www.w3.org/2000/svg"
   xmlns:sodipodi="http://sodipodi.sourceforge.net/DTD/sodipodi-0.dtd"
   xmlns:inkscape="http://www.inkscape.org/namespaces/inkscape"
   viewBox="0 0 866.33686 866.33688"
   preserveAspectRatio="xMinYMin meet"
   id="svg4163"
   version="1.1"
   inkscape:version="0.91 r13725"
   sodipodi:docname="inline-logo.svg"
   width="866.33685"
   height="866.33685">
  <metadata
     id="metadata4142">
    <rdf:RDF>
      <cc:Work
         rdf:about="">
        <dc:format>image/svg+xml</dc:format>
        <dc:type
           rdf:resource="http://purl.org/dc/dcmitype/StillImage" />
        <dc:title></dc:title>
      </cc:Work>
    </rdf:RDF>
  </metadata>
  <sodipodi:namedview
     pagecolor="#ffffff"
     bordercolor="#666666"
     borderopacity="1"
     objecttolerance="10"
     gridtolerance="10"
     guidetolerance="10"
     inkscape:pageopacity="0"
     inkscape:pageshadow="2"
     inkscape:window-width="1920"
     inkscape:window-height="1017"
     id="namedview4140"
     showgrid="false"
     inkscape:zoom="0.71074166"
     inkscape:cx="78.328201"
     inkscape:cy="439.81856"
     inkscape:window-x="1912"
     inkscape:window-y="-8"
     inkscape:window-maximized="1"
     inkscape:current-layer="layer2"
     fit-margin-top="0"
     fit-margin-left="0"
     fit-margin-right="0"
     fit-margin-bottom="0" />
  <defs
     id="defs4165">
    <linearGradient
       id="linearGradient5588"
       osb:paint="solid">
      <stop
         style="stop-color:#000000;stop-opacity:1;"
         offset="0"
         id="stop5590" />
    </linearGradient>
  </defs>
  <g
     inkscape:groupmode="layer"
     id="layer3"
     inkscape:label="BG"
     style="display:inline"
     transform="translate(4.9999999e-6,4.9999999e-6)">
    <rect
       style="opacity:1;fill:#132025;fill-opacity:1;stroke:#000000;stroke-width:0;stroke-linecap:round;stroke-miterlimit:4;stroke-dasharray:none;stroke-opacity:1"
       id="rect5614"
       width="866.33685"
       height="866.33685"
       x="0"
       y="0"
       rx="18.040001"
       ry="18.040001"
       inkscape:export-filename="I:\userdata\weston\Pictures\wawcologo.png"
       inkscape:export-xdpi="90"
       inkscape:export-ydpi="90" />
  </g>
  <g
     inkscape:groupmode="layer"
     id="layer2"
     inkscape:label="Stroke"
     style="display:inline"
     transform="translate(82.006638,-22.090853)">
    <g
       id="layer1"
       style="fill:#66ceda;fill-opacity:1"
       transform="translate(45.023391,92.860745)">
      <path
         style="fill:#66ceda;fill-opacity:1;stroke:#000000;stroke-width:0;stroke-miterlimit:4;stroke-dasharray:none;stroke-opacity:1"
         d="m -7.6474785,45.615503 c -26.6516975,0.39252 -53.4065545,-0.21077 -79.9887665,1.40748 -5.280616,1.98799 -2.856506,8.5721 -2.008626,12.5358 36.327072,190.894177 74.080682,381.516577 111.631162,572.174297 4.53707,22.14182 8.67445,44.49532 13.77996,66.44048 4.15954,4.90431 11.12702,1.88525 16.5428,2.9781 56.949149,0.996 113.908629,0.42078 170.862659,0.58692 9.33943,-29.3188 20.03721,-58.15881 30.05911,-87.24432 35.06945,0 70.1389,0 105.20836,0 9.82919,27.70997 18.96655,55.66696 29.52569,83.11303 7.61064,4.83213 17.03079,2.08613 25.46134,3.134 54.13791,0.68393 108.28072,0.13867 162.42076,0.32792 42.14516,-212.0194 83.7408,-424.15418 125.12499,-636.323607 0.63335,-5.00811 2.11434,-10.44159 1.34049,-15.26476 -4.40724,-5.09877 -11.72188,-2.18135 -17.44237,-3.26496 -53.07232,-0.78945 -106.36199,-0.95139 -159.30241,0.072 -4.66995,0.4227 -11.60806,-0.3921 -13.24704,5.31017 -1.18856,5.66605 -1.60621,11.45441 -3.02031,17.10202 -18.99348,106.754027 -36.50089,213.773167 -56.34037,320.367367 -17.3847,-46.0985 -34.41142,-92.3353 -52.4697,-138.17505 -6.62186,-5.40666 -15.70318,-2.63034 -23.47132,-3.61027 -52.65276,-0.41775 -105.3353,-0.83708 -157.97104,0.44867 -4.69561,0.14583 -9.16119,3.2233 -9.87956,8.06357 -17.71043,44.19286 -34.20512,88.86471 -51.81198,133.0908 C 136.84109,275.98194 118.9352,162.6062 98.759181,49.630273 c -3.94024,-5.42712 -11.34572,-2.4625 -16.8731,-3.47148 -29.84224,-0.43584 -59.6882,-0.62459 -89.5335595,-0.54327 z M 592.50962,61.495223 c 5.14248,0.0308 10.20306,0.15913 15.33733,0.65293 -31.75823,178.480597 -64.75161,356.737457 -97.0877,535.112707 -19.22211,0 -38.44421,0 -57.66632,0 -34.16785,-86.0762 -66.87945,-172.759 -102.70717,-258.15448 -3.91203,-5.94481 -12.05789,-3.80083 -17.87322,-4.60951 -21.44737,-0.53557 -42.96293,-0.60543 -64.37618,0.46776 -5.23603,0.7308 -8.49468,5.41547 -9.7543,10.19845 -18.18702,42.60204 -34.52138,85.96678 -51.76895,128.95306 -16.11321,40.83894 -32.17479,81.69347 -48.34085,122.50971 -19.57722,0.21366 -39.15443,0.42733 -58.731649,0.64098 C 67.094071,419.11327 34.624271,240.96395 2.2123511,62.804083 c 25.1433799,-1.57956 50.4744699,-0.74124 75.6998999,-1.04327 2.93078,0.48656 7.91599,-0.99365 7.30375,3.52595 C 103.1994,166.49152 119.1072,268.08918 137.04228,369.31738 c 3.41934,16.35739 5.14646,33.16137 10.12179,49.14723 1.26172,4.04433 5.0488,8.51683 9.69922,6.45022 6.55763,-2.7538 6.75932,-11.04809 9.92055,-16.4452 20.16476,-48.06709 37.87246,-97.11371 56.90634,-145.62414 54.74279,0 109.48558,0 164.22837,0 20.40482,52.91907 38.90411,106.62414 61.33443,158.72545 3.07054,5.13976 11.65075,4.61728 13.64897,-1.22968 4.70487,-9.61218 4.80186,-20.68051 7.27159,-30.94483 19.07656,-109.2647 37.43838,-218.67169 56.78816,-327.878797 21.84927,-0.0726 43.69887,0.15931 65.54792,-0.0224 z m -637.464268,0.0254 c 10.101926,0.0765 20.272166,-0.005 30.289199,0.54985 33.135,183.486917 66.7491,366.887307 100.08346,550.339477 22.565049,0.65138 45.229469,-0.17389 67.705449,1.19979 -9.42378,23.85116 -18.75337,47.73979 -28.23178,71.5693 -25.348929,-0.13366 -50.742859,1.32498 -76.045729,-0.20171 C 7.7728911,477.88739 -32.619643,270.63383 -73.440424,63.488403 c -1.854367,-3.62439 4.968374,-0.81284 6.87082,-1.79678 7.204078,-0.13822 14.409823,-0.14636 21.614956,-0.171 z m 701.042898,0 c 9.80952,0 19.61905,0 29.42857,0 C 644.63567,269.41523 603.7545,477.30983 562.87335,685.20444 c -25.52539,0.21665 -51.05077,0.4333 -76.57616,0.64995 -9.47146,-24.26945 -18.95128,-48.53336 -28.61576,-72.72576 22.40014,-0.22976 44.8003,-0.45819 67.20043,-0.68879 33.32704,-183.45477 66.95381,-366.85415 100.08794,-550.342477 10.28935,-0.58744 20.74869,-0.49771 31.11845,-0.57673 z M 305.82155,350.14062 c 10.80512,0.002 21.61024,0.003 32.41536,0.005 39.50692,100.79665 79.65662,201.33749 117.42261,302.78657 4.22304,10.8632 8.49422,21.71207 12.67363,32.59401 -22.54129,0.53724 -45.09026,0.23863 -67.63522,0.31376 -29.3831,-82.03296 -56.91728,-164.76857 -88.27677,-246.0624 -3.43289,-5.78099 -13.33477,-3.93103 -14.39496,2.77763 -30.70183,80.48393 -57.99414,162.2167 -87.15723,243.2534 -4.69679,0.45594 -9.44477,-0.62682 -14.16595,0.0359 -18.1005,0 -36.20101,0 -54.30151,0 20.49599,-50.86121 38.85431,-102.5389 59.22289,-153.44948 23.85856,-60.78082 47.99528,-121.44643 71.78179,-182.25683 10.80512,7.7e-4 21.61024,0.002 32.41536,0.003 z m 0.0553,115.5478 c 5.53973,15.13842 10.84456,30.43035 16.1397,45.67435 -10.76627,0 -21.53255,0 -32.29882,0 5.48435,-15.24682 10.4653,-30.69502 16.0874,-45.86859 l 0.0717,0.19424 z m -0.0553,62.2354 c 7.14497,0 14.28995,0 21.43493,0 8.22597,23.35221 16.63352,46.62639 24.61894,70.05872 -30.69391,0.89105 -61.41384,0.89226 -92.10774,0 7.97863,-23.41642 16.39378,-46.70711 24.61894,-70.05872 7.14498,0 14.28995,0 21.43493,0 z"
         id="path4163"
         inkscape:connector-curvature="0" />
    </g>
  </g>
</svg>
